<svg width="189" height="36" viewBox="0 0 189 36" fill="none" xmlns="http://www.w3.org/2000/svg">
<path d="M0.637013 23.684C0.469013 23.684 0.337013 23.636 0.241013 23.54C0.145013 23.468 0.145013 23.408 0.241013 23.36C0.769013 23.264 1.22501 23.072 1.60901 22.784C1.99301 22.472 2.30501 22.088 2.54501 21.632C3.04901 20.792 3.54101 19.952 4.02101 19.112C4.50101 18.248 4.96901 17.384 5.42501 16.52L8.88101 10.148C9.43301 9.164 9.91301 8.216 10.321 7.304C10.753 6.392 11.089 5.732 11.329 5.324C11.497 5.012 11.785 4.736 12.193 4.496C12.625 4.232 13.045 4.028 13.453 3.884C13.309 3.884 13.165 3.884 13.021 3.884C12.877 3.86 12.721 3.848 12.553 3.848C11.809 3.848 10.993 3.896 10.105 3.992C9.24101 4.064 8.38901 4.184 7.54901 4.352C6.73301 4.52 6.01301 4.748 5.38901 5.036C4.76501 5.324 4.34501 5.672 4.12901 6.08C4.03301 6.296 3.94901 6.512 3.87701 6.728C3.80501 6.944 3.76901 7.16 3.76901 7.376C3.76901 7.928 3.96101 8.324 4.34501 8.564C4.36901 8.564 4.38101 8.588 4.38101 8.636C4.38101 8.684 4.33301 8.732 4.23701 8.78C4.16501 8.828 4.09301 8.84 4.02101 8.816C3.80501 8.696 3.54101 8.408 3.22901 7.952C2.91701 7.472 2.72501 7.076 2.65301 6.764C2.58101 6.476 2.54501 6.212 2.54501 5.972C2.54501 5.348 2.74901 4.868 3.15701 4.532C3.56501 4.172 4.08101 3.92 4.70501 3.776C5.32901 3.608 5.96501 3.512 6.61301 3.488C7.28501 3.44 7.87301 3.416 8.37701 3.416C9.14501 3.416 10.057 3.416 11.113 3.416C12.169 3.392 13.141 3.38 14.029 3.38C14.245 3.38 14.485 3.38 14.749 3.38C15.013 3.356 15.289 3.344 15.577 3.344C16.225 3.344 16.897 3.38 17.593 3.452C18.289 3.524 18.925 3.68 19.501 3.92C20.077 4.16 20.521 4.532 20.833 5.036C21.145 5.564 21.301 6.14 21.301 6.764C21.301 7.364 21.181 7.964 20.941 8.564C20.701 9.164 20.413 9.68 20.077 10.112C19.861 10.376 19.609 10.64 19.321 10.904C19.033 11.168 18.709 11.42 18.349 11.66C17.989 11.9 17.593 12.128 17.161 12.344C16.753 12.536 16.261 12.692 15.685 12.812C15.661 12.812 15.637 12.848 15.613 12.92C15.613 12.992 15.637 13.028 15.685 13.028C15.805 13.052 16.009 13.088 16.297 13.136C16.609 13.16 16.885 13.196 17.125 13.244C17.965 13.412 18.661 13.772 19.213 14.324C19.789 14.852 20.077 15.572 20.077 16.484C20.077 17.516 19.801 18.464 19.249 19.328C18.721 20.192 18.037 20.936 17.197 21.56C16.357 22.16 15.481 22.628 14.569 22.964C13.417 23.396 12.097 23.612 10.609 23.612C9.72101 23.612 8.79701 23.528 7.83701 23.36C6.87701 23.192 6.00101 22.904 5.20901 22.496C5.04101 22.4 4.87301 22.328 4.70501 22.28C4.53701 22.208 4.35701 22.172 4.16501 22.172C3.82901 22.172 3.46901 22.268 3.08501 22.46C2.84501 22.556 2.53301 22.736 2.14901 23C1.76501 23.264 1.33301 23.48 0.853013 23.648C0.805013 23.672 0.733013 23.684 0.637013 23.684ZM9.45701 23.108C10.081 23.108 10.705 23.048 11.329 22.928C11.953 22.784 12.517 22.616 13.021 22.424C13.909 22.088 14.725 21.62 15.469 21.02C16.213 20.396 16.813 19.664 17.269 18.824C17.749 17.96 17.989 17 17.989 15.944C17.989 15.248 17.809 14.72 17.449 14.36C17.089 13.976 16.633 13.712 16.081 13.568C15.529 13.424 14.953 13.352 14.353 13.352C13.897 13.352 13.465 13.376 13.057 13.424C12.649 13.472 12.277 13.532 11.941 13.604C11.269 13.724 10.669 13.856 10.141 14C10.045 13.952 10.057 13.868 10.177 13.748C10.297 13.604 10.453 13.448 10.645 13.28C10.861 13.112 11.029 12.98 11.149 12.884C11.197 12.836 11.293 12.764 11.437 12.668C11.605 12.548 11.737 12.488 11.833 12.488C13.009 12.488 14.053 12.416 14.965 12.272C15.901 12.128 16.705 11.78 17.377 11.228C18.049 10.652 18.601 9.764 19.033 8.564C19.249 7.94 19.357 7.328 19.357 6.728C19.357 6.032 19.189 5.432 18.853 4.928C18.517 4.4 17.977 4.088 17.233 3.992C17.137 3.968 17.029 3.956 16.909 3.956C16.789 3.956 16.669 3.956 16.549 3.956C16.093 3.956 15.589 4.016 15.037 4.136C14.509 4.256 14.113 4.484 13.849 4.82C13.249 5.612 12.673 6.512 12.121 7.52C11.569 8.504 11.041 9.512 10.537 10.544C10.033 11.552 9.55301 12.5 9.09701 13.388C8.54501 14.468 7.98101 15.56 7.40501 16.664C6.82901 17.768 6.26501 18.884 5.71301 20.012C5.56901 20.3 5.49701 20.576 5.49701 20.84C5.49701 21.32 5.79701 21.788 6.39701 22.244C6.80501 22.556 7.27301 22.784 7.80101 22.928C8.35301 23.048 8.90501 23.108 9.45701 23.108ZM25.8559 23.072C25.4719 23.072 25.1239 23 24.8119 22.856C24.5239 22.688 24.3799 22.34 24.3799 21.812C24.3799 20.972 24.5959 20.132 25.0279 19.292C25.4599 18.428 25.9039 17.672 26.3599 17.024C26.7679 16.472 27.2239 15.956 27.7279 15.476C28.2559 14.972 28.8199 14.54 29.4199 14.18C29.8039 13.94 30.3199 13.688 30.9679 13.424C31.6399 13.136 32.2039 12.992 32.6599 12.992C33.0439 12.992 33.3799 13.1 33.6679 13.316C33.9559 13.508 34.0999 13.868 34.0999 14.396C34.0999 15.212 33.8839 16.052 33.4519 16.916C33.0439 17.756 32.6119 18.5 32.1559 19.148C31.9399 19.436 31.7239 19.712 31.5079 19.976C31.2919 20.216 31.0519 20.468 30.7879 20.732C31.6759 20.732 32.4919 20.48 33.2359 19.976C33.9799 19.448 34.6279 18.812 35.1799 18.068L35.2519 17.996C35.3239 17.996 35.3599 18.068 35.3599 18.212C35.3599 18.38 35.3119 18.536 35.2159 18.68C34.7359 19.352 34.1359 19.952 33.4159 20.48C32.6959 20.984 31.8799 21.236 30.9679 21.236C30.8719 21.236 30.7759 21.236 30.6799 21.236C30.5839 21.236 30.4879 21.224 30.3919 21.2C29.0479 22.448 27.5359 23.072 25.8559 23.072ZM26.7919 22.46C27.1279 22.46 27.4879 22.34 27.8719 22.1C28.2799 21.86 28.5919 21.632 28.8079 21.416C29.2159 21.008 29.5879 20.576 29.9239 20.12C30.2599 19.64 30.5719 19.16 30.8599 18.68C31.1959 18.104 31.5319 17.42 31.8679 16.628C32.2039 15.836 32.3719 15.092 32.3719 14.396C32.3719 13.844 32.1799 13.568 31.7959 13.568C31.4839 13.568 31.0999 13.7 30.6439 13.964C30.2119 14.228 29.8879 14.468 29.6719 14.684C28.8559 15.524 28.1719 16.436 27.6199 17.42C27.3079 17.972 26.9719 18.62 26.6119 19.364C26.2519 20.108 26.0719 20.792 26.0719 21.416C26.0719 21.512 26.0719 21.608 26.0719 21.704C26.0959 21.776 26.1199 21.86 26.1439 21.956C26.2399 22.292 26.4559 22.46 26.7919 22.46ZM38.6232 23.54C38.5272 23.54 38.5272 23.432 38.6232 23.216C38.7432 23 38.8512 22.76 38.9472 22.496C39.0672 22.232 39.1872 21.944 39.3072 21.632C39.5472 21.056 39.8112 20.408 40.0992 19.688C40.3872 18.968 40.6632 18.272 40.9272 17.6C41.1912 16.904 41.4192 16.316 41.6112 15.836C41.8272 15.332 41.9712 15.008 42.0432 14.864C41.7072 15.224 41.2992 15.68 40.8192 16.232C40.3632 16.76 39.9312 17.276 39.5232 17.78C39.1152 18.284 38.8032 18.68 38.5872 18.968C38.5152 19.064 38.4552 19.112 38.4072 19.112C38.3592 19.112 38.3352 19.052 38.3352 18.932C38.3352 18.74 38.3952 18.56 38.5152 18.392C38.9712 17.816 39.4752 17.168 40.0272 16.448C40.6032 15.728 41.1192 15.068 41.5752 14.468C42.0312 13.844 42.3192 13.436 42.4392 13.244C42.7032 13.196 43.0872 13.124 43.5912 13.028C44.1192 12.932 44.4792 12.8 44.6712 12.632C44.7432 12.56 44.8152 12.524 44.8872 12.524C44.9352 12.524 44.9592 12.572 44.9592 12.668C44.9832 12.74 44.9592 12.824 44.8872 12.92C44.7432 13.088 44.4912 13.484 44.1312 14.108C43.7952 14.708 43.4232 15.38 43.0152 16.124C42.6312 16.868 42.2712 17.54 41.9352 18.14C42.2232 17.756 42.5352 17.384 42.8712 17.024C43.2072 16.664 43.5312 16.316 43.8432 15.98C44.1312 15.692 44.5272 15.332 45.0312 14.9C45.5352 14.468 46.0632 14.072 46.6152 13.712C47.1672 13.352 47.6472 13.148 48.0552 13.1C48.1512 13.076 48.2352 13.064 48.3072 13.064C48.4032 13.064 48.4752 13.064 48.5232 13.064C49.0512 13.064 49.3152 13.256 49.3152 13.64C49.3152 13.928 49.1592 14.312 48.8472 14.792C48.6792 15.056 48.4152 15.5 48.0552 16.124C47.7192 16.724 47.3712 17.384 47.0112 18.104C46.6752 18.8 46.3752 19.46 46.1112 20.084C45.8712 20.684 45.7512 21.128 45.7512 21.416C45.7512 21.752 45.9192 21.92 46.2552 21.92C46.6632 21.92 47.1072 21.716 47.5872 21.308C48.0912 20.9 48.6312 20.384 49.2072 19.76C49.7832 19.112 50.3592 18.428 50.9352 17.708C50.9832 17.756 51.0072 17.84 51.0072 17.96C51.0072 18.128 50.9472 18.296 50.8272 18.464C50.7312 18.608 50.6352 18.74 50.5392 18.86C50.2992 19.172 49.9752 19.568 49.5672 20.048C49.1832 20.504 48.7872 20.96 48.3792 21.416C47.9712 21.848 47.5992 22.196 47.2632 22.46C47.0232 22.628 46.7112 22.808 46.3272 23C45.9432 23.192 45.5592 23.288 45.1752 23.288C44.7432 23.288 44.4432 23.18 44.2752 22.964C44.1072 22.724 44.0232 22.436 44.0232 22.1C44.0232 21.716 44.0952 21.308 44.2392 20.876C44.3832 20.444 44.5392 20.036 44.7072 19.652C44.8992 19.244 45.0432 18.944 45.1392 18.752C45.5712 17.912 45.9672 17.12 46.3272 16.376C46.6872 15.632 46.9392 15.104 47.0832 14.792C47.1552 14.648 47.1912 14.528 47.1912 14.432C47.1912 14.264 47.0592 14.252 46.7952 14.396C46.5312 14.54 46.2072 14.756 45.8232 15.044C45.4632 15.332 45.1272 15.62 44.8152 15.908C44.5032 16.172 44.2992 16.352 44.2032 16.448C43.3152 17.384 42.5352 18.428 41.8632 19.58C41.2152 20.708 40.6632 21.872 40.2072 23.072C39.8952 23.096 39.5832 23.18 39.2712 23.324C38.9592 23.468 38.7432 23.54 38.6232 23.54ZM54.106 23.54C54.01 23.54 54.01 23.432 54.106 23.216C54.226 23 54.334 22.76 54.43 22.496C54.55 22.232 54.67 21.944 54.79 21.632C55.03 21.056 55.294 20.408 55.582 19.688C55.87 18.968 56.146 18.272 56.41 17.6C56.674 16.904 56.902 16.316 57.094 15.836C57.31 15.332 57.454 15.008 57.526 14.864C57.19 15.224 56.782 15.68 56.302 16.232C55.846 16.76 55.414 17.276 55.006 17.78C54.598 18.284 54.286 18.68 54.07 18.968C53.998 19.064 53.938 19.112 53.89 19.112C53.842 19.112 53.818 19.052 53.818 18.932C53.818 18.74 53.878 18.56 53.998 18.392C54.454 17.816 54.958 17.168 55.51 16.448C56.086 15.728 56.602 15.068 57.058 14.468C57.514 13.844 57.802 13.436 57.922 13.244C58.186 13.196 58.57 13.124 59.074 13.028C59.602 12.932 59.962 12.8 60.154 12.632C60.226 12.56 60.298 12.524 60.37 12.524C60.418 12.524 60.442 12.572 60.442 12.668C60.466 12.74 60.442 12.824 60.37 12.92C60.226 13.088 59.974 13.484 59.614 14.108C59.278 14.708 58.906 15.38 58.498 16.124C58.114 16.868 57.754 17.54 57.418 18.14C57.706 17.756 58.018 17.384 58.354 17.024C58.69 16.664 59.014 16.316 59.326 15.98C59.614 15.692 60.01 15.332 60.514 14.9C61.018 14.468 61.546 14.072 62.098 13.712C62.65 13.352 63.13 13.148 63.538 13.1C63.634 13.076 63.718 13.064 63.79 13.064C63.886 13.064 63.958 13.064 64.006 13.064C64.534 13.064 64.798 13.256 64.798 13.64C64.798 13.928 64.642 14.312 64.33 14.792C64.162 15.056 63.898 15.5 63.538 16.124C63.202 16.724 62.854 17.384 62.494 18.104C62.158 18.8 61.858 19.46 61.594 20.084C61.354 20.684 61.234 21.128 61.234 21.416C61.234 21.752 61.402 21.92 61.738 21.92C62.146 21.92 62.59 21.716 63.07 21.308C63.574 20.9 64.114 20.384 64.69 19.76C65.266 19.112 65.842 18.428 66.418 17.708C66.466 17.756 66.49 17.84 66.49 17.96C66.49 18.128 66.43 18.296 66.31 18.464C66.214 18.608 66.118 18.74 66.022 18.86C65.782 19.172 65.458 19.568 65.05 20.048C64.666 20.504 64.27 20.96 63.862 21.416C63.454 21.848 63.082 22.196 62.746 22.46C62.506 22.628 62.194 22.808 61.81 23C61.426 23.192 61.042 23.288 60.658 23.288C60.226 23.288 59.926 23.18 59.758 22.964C59.59 22.724 59.506 22.436 59.506 22.1C59.506 21.716 59.578 21.308 59.722 20.876C59.866 20.444 60.022 20.036 60.19 19.652C60.382 19.244 60.526 18.944 60.622 18.752C61.054 17.912 61.45 17.12 61.81 16.376C62.17 15.632 62.422 15.104 62.566 14.792C62.638 14.648 62.674 14.528 62.674 14.432C62.674 14.264 62.542 14.252 62.278 14.396C62.014 14.54 61.69 14.756 61.306 15.044C60.946 15.332 60.61 15.62 60.298 15.908C59.986 16.172 59.782 16.352 59.686 16.448C58.798 17.384 58.018 18.428 57.346 19.58C56.698 20.708 56.146 21.872 55.69 23.072C55.378 23.096 55.066 23.18 54.754 23.324C54.442 23.468 54.226 23.54 54.106 23.54ZM65.6648 35.6C64.7528 35.6 63.8768 35.384 63.0368 34.952C62.1728 34.544 61.5368 33.908 61.1288 33.044C60.9848 32.732 60.8888 32.396 60.8408 32.036C60.7928 31.7 60.7688 31.364 60.7688 31.028V30.632C60.7688 30.44 60.7928 30.26 60.8408 30.092C60.8888 29.948 61.0088 29.876 61.2008 29.876C61.2488 29.876 61.2728 29.9 61.2728 29.948C61.2728 30.092 61.2608 30.236 61.2368 30.38C61.2128 30.524 61.2008 30.68 61.2008 30.848C61.2008 31.952 61.5608 32.792 62.2808 33.368C62.9768 33.944 63.8528 34.232 64.9088 34.232C65.3408 34.232 65.7848 34.184 66.2408 34.088C66.6968 33.992 67.1288 33.86 67.5368 33.692C69.0488 33.044 70.3568 32.12 71.4608 30.92C72.5888 29.744 73.5728 28.412 74.4128 26.924C75.2528 25.436 76.0088 23.924 76.6808 22.388C77.0648 21.476 77.4008 20.588 77.6888 19.724C78.0008 18.86 78.2768 18.08 78.5168 17.384C78.2768 17.72 77.9648 18.128 77.5808 18.608C77.1968 19.088 76.8128 19.556 76.4288 20.012C76.0448 20.444 75.7088 20.792 75.4208 21.056C74.8208 21.632 74.1728 22.124 73.4768 22.532C72.8048 22.916 72.1088 23.108 71.3888 23.108C71.1488 23.108 70.9448 23.06 70.7768 22.964C70.6088 22.868 70.5248 22.688 70.5248 22.424C70.5248 22.088 70.6088 21.692 70.7768 21.236C70.9688 20.78 71.1728 20.324 71.3888 19.868C71.6048 19.412 71.7848 19.04 71.9288 18.752C72.2168 18.2 72.4928 17.648 72.7568 17.096C73.0208 16.544 73.2488 16.076 73.4408 15.692C73.6328 15.332 73.7288 15.092 73.7288 14.972C73.7288 14.78 73.5848 14.78 73.2968 14.972C73.0328 15.164 72.7808 15.356 72.5408 15.548C72.0128 16.052 71.4608 16.652 70.8848 17.348C70.3088 18.02 69.8648 18.56 69.5528 18.968C69.4808 19.064 69.4208 19.112 69.3728 19.112C69.3248 19.112 69.3008 19.052 69.3008 18.932C69.3008 18.74 69.3608 18.56 69.4808 18.392C69.8168 17.912 70.2128 17.384 70.6688 16.808C71.1248 16.232 71.5928 15.68 72.0728 15.152C72.5288 14.672 72.9968 14.204 73.4768 13.748C73.9568 13.292 74.5688 13.064 75.3128 13.064C75.8168 13.064 76.0688 13.256 76.0688 13.64C76.0688 13.976 75.9248 14.36 75.6368 14.792C75.4688 15.056 75.2048 15.5 74.8448 16.124C74.4848 16.748 74.1128 17.432 73.7288 18.176C73.3688 18.896 73.0568 19.568 72.7928 20.192C72.5288 20.816 72.3968 21.272 72.3968 21.56C72.3968 21.896 72.5648 22.064 72.9008 22.064C73.1648 22.064 73.4888 21.932 73.8728 21.668C74.2568 21.38 74.6528 21.044 75.0608 20.66C75.7568 19.988 76.3928 19.244 76.9688 18.428C77.5688 17.612 78.0848 16.832 78.5168 16.088C78.5888 15.968 78.7088 15.752 78.8768 15.44C79.0688 15.128 79.2608 14.828 79.4528 14.54C79.6688 14.252 79.8368 14.084 79.9568 14.036C80.0768 13.988 80.3168 13.856 80.6768 13.64C81.0368 13.424 81.3968 13.28 81.7568 13.208C82.0928 13.136 82.3448 13.1 82.5128 13.1C82.7768 13.1 82.9088 13.172 82.9088 13.316C82.9088 13.508 82.8008 13.604 82.5848 13.604C82.3208 13.604 82.0808 13.676 81.8648 13.82C81.6488 13.94 81.4808 14.096 81.3608 14.288C81.1448 14.6 80.8328 15.164 80.4248 15.98C80.0408 16.796 79.6088 17.744 79.1288 18.824C78.6728 19.88 78.2168 20.96 77.7608 22.064C77.3048 23.144 76.8848 24.14 76.5008 25.052C75.9248 26.42 75.2648 27.752 74.5208 29.048C73.7768 30.368 72.9008 31.544 71.8928 32.576C70.9088 33.632 69.7328 34.46 68.3648 35.06C67.5488 35.42 66.6488 35.6 65.6648 35.6ZM98.8819 24.368C98.1379 24.368 97.4299 24.152 96.7579 23.72C96.0859 23.312 95.5819 22.676 95.2459 21.812C95.1259 21.5 95.0419 21.164 94.9939 20.804C94.9699 20.444 94.9579 20.096 94.9579 19.76V19.292C94.9579 19.124 94.9699 18.968 94.9939 18.824C95.0419 18.68 95.1379 18.608 95.2819 18.608C95.3299 18.608 95.3539 18.632 95.3539 18.68C95.3539 18.824 95.3419 18.968 95.3179 19.112C95.3179 19.256 95.3179 19.4 95.3179 19.544C95.3179 20.672 95.5939 21.536 96.1459 22.136C96.7219 22.712 97.4299 23 98.2699 23C99.1099 23 99.9259 22.76 100.718 22.28C101.51 21.776 102.242 21.152 102.914 20.408C103.298 20 103.73 19.388 104.21 18.572C104.714 17.732 105.23 16.796 105.758 15.764C106.31 14.708 106.862 13.628 107.414 12.524C107.966 11.396 108.494 10.316 108.998 9.284C109.502 8.228 109.958 7.304 110.366 6.512C110.75 5.768 111.266 5.18 111.914 4.748C112.562 4.316 113.114 4.016 113.57 3.848C113.402 3.848 113.042 3.86 112.49 3.884C111.962 3.908 111.398 3.932 110.798 3.956C110.198 3.98 109.718 4.004 109.358 4.028C108.446 4.076 107.522 4.184 106.586 4.352C105.65 4.52 104.822 4.748 104.102 5.036C103.382 5.324 102.866 5.696 102.554 6.152C102.338 6.464 102.23 6.824 102.23 7.232C102.23 8.048 102.59 8.636 103.31 8.996C103.358 9.044 103.382 9.068 103.382 9.068C103.382 9.14 103.322 9.212 103.202 9.284C103.082 9.332 102.962 9.344 102.842 9.32C102.65 9.2 102.41 9.008 102.122 8.744C101.858 8.456 101.606 8.156 101.366 7.844C101.15 7.532 101.006 7.268 100.934 7.052C100.814 6.692 100.754 6.404 100.754 6.188C100.754 5.612 100.97 5.144 101.402 4.784C101.834 4.4 102.398 4.112 103.094 3.92C103.79 3.704 104.534 3.56 105.326 3.488C106.118 3.392 106.886 3.332 107.63 3.308C108.374 3.284 109.01 3.272 109.538 3.272C110.762 3.272 111.854 3.272 112.814 3.272C113.798 3.248 114.698 3.236 115.514 3.236C116.354 3.236 117.158 3.248 117.926 3.272C118.718 3.296 119.546 3.332 120.41 3.38C121.034 3.404 121.454 3.524 121.67 3.74C121.91 3.956 122.03 4.22 122.03 4.532C122.03 4.94 121.898 5.384 121.634 5.864C121.37 6.344 121.13 6.788 120.914 7.196C120.818 7.388 120.662 7.532 120.446 7.628C120.23 7.7 120.146 7.628 120.194 7.412C120.242 7.196 120.29 6.968 120.338 6.728C120.386 6.464 120.41 6.212 120.41 5.972C120.41 5.54 120.326 5.156 120.158 4.82C119.99 4.46 119.702 4.208 119.294 4.064C119.054 3.968 118.766 3.908 118.43 3.884C118.094 3.836 117.734 3.812 117.35 3.812C116.63 3.812 115.91 3.884 115.19 4.028C114.47 4.172 113.906 4.4 113.498 4.712C112.994 5.096 112.478 5.72 111.95 6.584C111.446 7.448 110.966 8.372 110.51 9.356C110.054 10.34 109.646 11.204 109.286 11.948C109.262 11.996 109.25 12.068 109.25 12.164C109.25 12.284 109.358 12.344 109.574 12.344C109.91 12.344 110.378 12.344 110.978 12.344C111.602 12.344 112.25 12.356 112.922 12.38C113.594 12.38 114.17 12.38 114.65 12.38C115.178 12.38 115.598 12.416 115.91 12.488C116.222 12.536 116.378 12.692 116.378 12.956C116.378 13.052 116.318 13.244 116.198 13.532C116.03 13.916 115.838 14.252 115.622 14.54C115.43 14.804 115.274 15.08 115.154 15.368C115.13 15.464 115.022 15.548 114.83 15.62C114.638 15.692 114.566 15.68 114.614 15.584C114.71 15.368 114.806 15.104 114.902 14.792C115.022 14.456 115.082 14.168 115.082 13.928C115.082 13.544 114.914 13.352 114.578 13.352H108.962C108.746 13.352 108.578 13.448 108.458 13.64C107.762 15.032 107.006 16.52 106.19 18.104C105.398 19.688 104.474 21.044 103.418 22.172C102.818 22.82 102.122 23.348 101.33 23.756C100.538 24.164 99.7219 24.368 98.8819 24.368ZM121.959 23.072C121.239 23.072 120.747 22.904 120.483 22.568C120.219 22.208 120.087 21.776 120.087 21.272C120.087 20.6 120.231 19.88 120.519 19.112C120.831 18.344 121.083 17.744 121.275 17.312C120.963 17.648 120.663 17.972 120.375 18.284C120.087 18.596 119.883 18.824 119.763 18.968C119.691 19.064 119.631 19.112 119.583 19.112C119.535 19.112 119.511 19.052 119.511 18.932C119.511 18.74 119.571 18.56 119.691 18.392C120.027 17.96 120.411 17.504 120.843 17.024C121.275 16.544 121.695 16.04 122.103 15.512C122.583 14.624 123.111 13.592 123.687 12.416C124.287 11.216 124.899 9.992 125.523 8.744C126.171 7.472 126.795 6.308 127.395 5.252C128.019 4.172 128.571 3.308 129.051 2.66C129.459 2.492 129.843 2.276 130.203 2.012C130.587 1.748 130.959 1.508 131.319 1.292C131.703 1.052 132.099 0.931999 132.507 0.931999C132.771 0.931999 132.963 1.004 133.083 1.148C133.227 1.292 133.323 1.46 133.371 1.652C133.395 1.724 133.407 1.856 133.407 2.048C133.407 2.6 133.215 3.272 132.831 4.064C132.471 4.856 132.039 5.636 131.535 6.404C131.055 7.148 130.635 7.76 130.275 8.24C129.315 9.584 128.331 10.808 127.323 11.912C126.315 12.992 125.403 13.904 124.587 14.648C123.795 15.368 123.219 15.896 122.859 16.232C122.691 16.544 122.487 16.964 122.247 17.492C122.031 17.996 121.839 18.536 121.671 19.112C121.503 19.664 121.419 20.18 121.419 20.66C121.419 21.068 121.515 21.416 121.707 21.704C121.899 21.968 122.223 22.1 122.679 22.1C122.751 22.1 122.823 22.1 122.895 22.1C122.967 22.1 123.051 22.088 123.147 22.064C123.555 21.992 123.999 21.764 124.479 21.38C124.959 20.996 125.439 20.552 125.919 20.048C126.399 19.544 126.831 19.064 127.215 18.608C127.383 18.416 127.539 18.236 127.683 18.068C127.827 17.876 127.923 17.744 127.971 17.672C128.139 17.84 128.127 18.056 127.935 18.32C127.767 18.56 127.623 18.764 127.503 18.932C127.335 19.148 127.095 19.448 126.783 19.832C126.471 20.192 126.111 20.588 125.703 21.02C125.247 21.476 124.683 21.932 124.011 22.388C123.339 22.844 122.655 23.072 121.959 23.072ZM123.471 14.792C124.215 14.168 125.151 13.28 126.279 12.128C127.431 10.952 128.559 9.536 129.663 7.88C129.783 7.688 129.975 7.364 130.239 6.908C130.527 6.452 130.815 5.936 131.103 5.36C131.415 4.76 131.679 4.184 131.895 3.632C132.111 3.056 132.219 2.564 132.219 2.156C132.219 1.772 132.111 1.58 131.895 1.58C131.631 1.58 131.283 1.808 130.851 2.264C130.347 2.792 129.771 3.572 129.123 4.604C128.499 5.612 127.839 6.74 127.143 7.988C126.447 9.236 125.775 10.46 125.127 11.66C124.503 12.86 123.951 13.904 123.471 14.792ZM131.458 23.072C131.074 23.072 130.726 23 130.414 22.856C130.126 22.688 129.982 22.34 129.982 21.812C129.982 20.972 130.198 20.132 130.63 19.292C131.062 18.428 131.506 17.672 131.962 17.024C132.37 16.472 132.826 15.956 133.33 15.476C133.858 14.972 134.422 14.54 135.022 14.18C135.406 13.94 135.922 13.688 136.57 13.424C137.242 13.136 137.806 12.992 138.262 12.992C138.646 12.992 138.982 13.1 139.27 13.316C139.558 13.508 139.702 13.868 139.702 14.396C139.702 15.212 139.486 16.052 139.054 16.916C138.646 17.756 138.214 18.5 137.758 19.148C137.542 19.436 137.326 19.712 137.11 19.976C136.894 20.216 136.654 20.468 136.39 20.732C137.278 20.732 138.094 20.48 138.838 19.976C139.582 19.448 140.23 18.812 140.782 18.068L140.854 17.996C140.926 17.996 140.962 18.068 140.962 18.212C140.962 18.38 140.914 18.536 140.818 18.68C140.338 19.352 139.738 19.952 139.018 20.48C138.298 20.984 137.482 21.236 136.57 21.236C136.474 21.236 136.378 21.236 136.282 21.236C136.186 21.236 136.09 21.224 135.994 21.2C134.65 22.448 133.138 23.072 131.458 23.072ZM132.394 22.46C132.73 22.46 133.09 22.34 133.474 22.1C133.882 21.86 134.194 21.632 134.41 21.416C134.818 21.008 135.19 20.576 135.526 20.12C135.862 19.64 136.174 19.16 136.462 18.68C136.798 18.104 137.134 17.42 137.47 16.628C137.806 15.836 137.974 15.092 137.974 14.396C137.974 13.844 137.782 13.568 137.398 13.568C137.086 13.568 136.702 13.7 136.246 13.964C135.814 14.228 135.49 14.468 135.274 14.684C134.458 15.524 133.774 16.436 133.222 17.42C132.91 17.972 132.574 18.62 132.214 19.364C131.854 20.108 131.674 20.792 131.674 21.416C131.674 21.512 131.674 21.608 131.674 21.704C131.698 21.776 131.722 21.86 131.746 21.956C131.842 22.292 132.058 22.46 132.394 22.46ZM146.962 23.216C146.626 23.216 146.338 23.096 146.098 22.856C145.858 22.616 145.738 22.196 145.738 21.596C145.738 21.068 145.774 20.444 145.846 19.724C145.942 19.004 146.074 18.272 146.242 17.528C146.41 16.76 146.602 16.088 146.818 15.512C146.41 16.112 145.954 16.736 145.45 17.384C144.946 18.008 144.526 18.536 144.19 18.968C144.118 19.064 144.058 19.112 144.01 19.112C143.962 19.112 143.938 19.052 143.938 18.932C143.938 18.74 143.998 18.56 144.118 18.392C144.622 17.696 145.186 16.904 145.81 16.016C146.458 15.128 147.01 14.324 147.466 13.604C147.73 13.556 148.042 13.484 148.402 13.388C148.786 13.292 149.062 13.16 149.23 12.992C149.35 12.92 149.422 12.884 149.446 12.884C149.518 12.884 149.554 12.932 149.554 13.028C149.554 13.1 149.518 13.184 149.446 13.28C149.23 13.592 148.99 14.084 148.726 14.756C148.462 15.404 148.21 16.136 147.97 16.952C147.73 17.744 147.526 18.524 147.358 19.292C147.214 20.06 147.142 20.696 147.142 21.2C147.142 21.584 147.202 21.848 147.322 21.992C147.466 22.136 147.622 22.208 147.79 22.208C148.126 22.208 148.474 22.052 148.834 21.74C149.218 21.428 149.59 21.044 149.95 20.588C150.334 20.132 150.67 19.688 150.958 19.256C151.246 18.824 151.462 18.488 151.606 18.248C152.086 17.48 152.542 16.652 152.974 15.764C153.43 14.852 153.814 14.132 154.126 13.604C154.39 13.556 154.702 13.484 155.062 13.388C155.446 13.292 155.734 13.16 155.926 12.992C155.998 12.92 156.058 12.884 156.106 12.884C156.178 12.884 156.214 12.932 156.214 13.028C156.238 13.1 156.214 13.184 156.142 13.28C155.926 13.592 155.698 14.072 155.458 14.72C155.218 15.368 154.978 16.088 154.738 16.88C154.522 17.648 154.342 18.416 154.198 19.184C154.054 19.928 153.982 20.564 153.982 21.092C153.982 21.812 154.246 22.172 154.774 22.172C155.134 22.172 155.53 22.04 155.962 21.776C156.418 21.512 156.79 21.236 157.078 20.948C157.894 20.108 158.578 19.28 159.13 18.464C159.682 17.648 160.15 16.712 160.534 15.656C160.678 15.296 160.774 14.984 160.822 14.72C160.87 14.432 160.894 14.168 160.894 13.928C160.894 13.592 160.834 13.328 160.714 13.136C160.618 12.92 160.51 12.8 160.39 12.776C160.27 12.728 160.21 12.668 160.21 12.596C160.21 12.548 160.27 12.5 160.39 12.452C160.51 12.38 160.642 12.356 160.786 12.38C161.17 12.476 161.494 12.656 161.758 12.92C162.046 13.16 162.19 13.52 162.19 14C162.19 14.384 162.106 14.792 161.938 15.224C161.602 16.112 161.11 17.036 160.462 17.996C159.838 18.932 159.13 19.808 158.338 20.624C157.546 21.44 156.718 22.1 155.854 22.604C155.542 22.772 155.218 22.916 154.882 23.036C154.546 23.156 154.222 23.216 153.91 23.216C153.526 23.216 153.19 23.096 152.902 22.856C152.638 22.616 152.506 22.196 152.506 21.596C152.506 20.972 152.566 20.228 152.686 19.364C152.83 18.5 153.01 17.66 153.226 16.844C153.058 17.108 152.89 17.396 152.722 17.708C152.578 17.996 152.41 18.296 152.218 18.608C151.618 19.472 150.994 20.288 150.346 21.056C149.722 21.824 149.182 22.34 148.726 22.604C148.438 22.772 148.138 22.916 147.826 23.036C147.514 23.156 147.226 23.216 146.962 23.216ZM167.662 23.288C166.678 23.288 165.994 23.096 165.61 22.712C165.226 22.328 165.034 21.86 165.034 21.308C165.034 20.612 165.214 19.868 165.574 19.076C165.958 18.284 166.318 17.612 166.654 17.06C167.038 16.484 167.554 15.884 168.202 15.26C168.85 14.636 169.558 14.108 170.326 13.676C171.094 13.244 171.838 13.028 172.558 13.028C173.182 13.028 173.614 13.184 173.854 13.496C174.094 13.784 174.214 14.132 174.214 14.54C174.214 15.284 173.986 15.896 173.53 16.376C173.098 16.856 172.558 17.252 171.91 17.564C171.262 17.852 170.638 18.092 170.038 18.284C169.678 18.38 169.258 18.476 168.778 18.572C168.298 18.668 167.842 18.716 167.41 18.716C167.242 19.148 167.11 19.568 167.014 19.976C166.918 20.384 166.87 20.756 166.87 21.092C166.87 21.5 166.966 21.836 167.158 22.1C167.374 22.364 167.722 22.496 168.202 22.496C168.394 22.496 168.622 22.472 168.886 22.424C169.15 22.376 169.438 22.304 169.75 22.208C170.47 21.968 171.178 21.584 171.874 21.056C172.57 20.528 173.206 19.964 173.782 19.364C174.382 18.74 174.838 18.224 175.15 17.816C175.222 17.888 175.258 17.972 175.258 18.068C175.258 18.188 175.174 18.38 175.006 18.644C174.526 19.316 173.902 20.012 173.134 20.732C172.366 21.452 171.514 22.064 170.578 22.568C169.642 23.048 168.67 23.288 167.662 23.288ZM167.698 17.996C168.01 18.02 168.358 18.02 168.742 17.996C169.15 17.948 169.546 17.864 169.93 17.744C170.914 17.456 171.622 17 172.054 16.376C172.51 15.728 172.738 15.152 172.738 14.648C172.738 14.36 172.678 14.12 172.558 13.928C172.438 13.736 172.246 13.64 171.982 13.64C171.286 13.64 170.662 13.904 170.11 14.432C169.558 14.936 169.078 15.524 168.67 16.196C168.262 16.868 167.938 17.468 167.698 17.996ZM178.39 23.504C178.294 23.504 178.294 23.408 178.39 23.216C178.51 23 178.618 22.76 178.714 22.496C178.834 22.232 178.954 21.944 179.074 21.632C179.314 21.056 179.578 20.408 179.866 19.688C180.154 18.968 180.43 18.272 180.694 17.6C180.958 16.904 181.186 16.316 181.378 15.836C181.594 15.332 181.738 15.008 181.81 14.864C181.474 15.224 181.066 15.68 180.586 16.232C180.13 16.76 179.698 17.276 179.29 17.78C178.882 18.284 178.57 18.68 178.354 18.968C178.282 19.064 178.222 19.112 178.174 19.112C178.126 19.112 178.102 19.052 178.102 18.932C178.102 18.74 178.162 18.56 178.282 18.392C178.738 17.816 179.242 17.168 179.794 16.448C180.37 15.728 180.886 15.068 181.342 14.468C181.798 13.844 182.086 13.436 182.206 13.244C182.47 13.196 182.854 13.124 183.358 13.028C183.886 12.932 184.246 12.8 184.438 12.632C184.51 12.56 184.582 12.524 184.654 12.524C184.702 12.524 184.726 12.572 184.726 12.668C184.75 12.74 184.726 12.824 184.654 12.92C184.51 13.064 184.294 13.376 184.006 13.856C183.742 14.336 183.442 14.888 183.106 15.512C182.77 16.136 182.446 16.736 182.134 17.312C182.374 16.952 182.686 16.532 183.07 16.052C183.478 15.548 183.922 15.068 184.402 14.612C184.882 14.132 185.362 13.736 185.842 13.424C186.346 13.112 186.814 12.956 187.246 12.956C187.558 12.956 187.822 13.028 188.038 13.172C188.254 13.292 188.422 13.52 188.542 13.856C188.614 14.024 188.65 14.216 188.65 14.432C188.65 14.84 188.542 15.236 188.326 15.62C188.134 15.98 187.99 16.256 187.894 16.448C187.87 16.52 187.786 16.592 187.642 16.664C187.498 16.712 187.438 16.688 187.462 16.592C187.486 16.472 187.498 16.352 187.498 16.232C187.522 16.112 187.534 15.98 187.534 15.836C187.534 15.428 187.45 15.056 187.282 14.72C187.138 14.384 186.862 14.216 186.454 14.216C186.07 14.216 185.602 14.456 185.05 14.936C184.498 15.416 183.946 15.968 183.394 16.592C182.698 17.408 182.146 18.188 181.738 18.932C181.33 19.652 180.994 20.36 180.73 21.056C180.586 21.44 180.442 21.824 180.298 22.208C180.154 22.568 180.046 22.856 179.974 23.072C179.662 23.096 179.35 23.168 179.038 23.288C178.726 23.432 178.51 23.504 178.39 23.504Z" fill="#998184"/>
</svg>
